# xmcd
#
# Track frame offsets:
#	150
#	20853
#	36874
#	60973
#	82426
#	103047
#	125390
#	145609
#	166986
#	188934
#	208451
#	225764
#	245808
#
# Disc length: 3708 seconds
#
# Revision: 1
# Processed by: cddbd v1.5.2PL0 Copyright (c) Steve Scherf et al.
# Submitted via: EZCDAudioConverter 8.0.2.1
#
DISCID=b80e7a0d
DTITLE=Various Artist - Trang Web Mong Chờ, Trăng Vỡ
DYEAR=2005
DGENRE=Contemporary Pop
TTITLE0=Đan Trường - Trang Web Mong Chờ
TTITLE1=Cao Thái Sơn - Trên đường đời
TTITLE2=Đinh Phi Trường - Cơn mưa mùa đông
TTITLE3=Đan Trường - Trăng Vỡ
TTITLE4=Cao Thái Sơn - Nắng gió và em
TTITLE5=Trương Đình Phong - Trái tim vô tội
TTITLE6=Đan Trường - Hát vì những niềm đau
TTITLE7=Đinh Phi Trường - Chỉ mình tôi biết
TTITLE8=Đan Trường, Cao Thái Sơn - Tình buồn xa vắng
TTITLE9=Mỹ Lệ - Vầng trăng lãng du
TTITLE10=Cao Thái Sơn - Để tình yêu lên ngôi
TTITLE11=Sỹ Ben - Chuyện ngày thơ
TTITLE12=Đan Trường, Thanh Thảo - Trương Chi - Mị Nương
EXTD=
EXTT0=
EXTT1=
EXTT2=
EXTT3=
EXTT4=
EXTT5=
EXTT6=
EXTT7=
EXTT8=
EXTT9=
EXTT10=
EXTT11=
EXTT12=
PLAYORDER=
